<?xml version="1.0" encoding="UTF-8"?>
<svg id="Layer_1" data-name="Layer 1" xmlns="http://www.w3.org/2000/svg" width="2494" height="1406" viewBox="0 0 2494 1406">
  <defs>
    <style>
      .cls-1 {
        fill: #032ca6;
      }
    </style>
  </defs>
  <path class="cls-1" d="M770.42,879.68c-.33,.33-.67,.67-1,1,0,.04,0,.07,0,.11,0,.09,0,.17,0,.26,0,.29,0,.59,0,.88s0,.59,0,.88v.2c0,.06,0,.11,0,.17,.33-.33,.67-.67,1-1,0-.04,0-.07,0-.11,0-.09,0-.17,0-.26,0-.29,0-.59,0-.88s0-.59,0-.88v-.2c0-.06,0-.11,0-.17h0Z"/>
  <path class="cls-1" d="M770.42,879.68c-.33,.33-.67,.67-1,1,0,.04,0,.07,0,.11,0,.09,0,.17,0,.26,0,.29,0,.59,0,.88s0,.59,0,.88v.2c0,.06,0,.11,0,.17,.33-.33,.67-.67,1-1,0-.04,0-.07,0-.11,0-.09,0-.17,0-.26,0-.29,0-.59,0-.88s0-.59,0-.88v-.2c0-.06,0-.11,0-.17h0Z"/>
  <path class="cls-1" d="M769.42,882.18h.59s.02-2.5,0-2.5h-.59s-.02,2.5,0,2.5h.59s.02-2.5,0-2.5h-.59s-.02,2.5,0,2.5h0Z"/>
  <path class="cls-1" d="M678.42,871.68c-.33,0-.67,0-1,0-.02,0-.02,2.5,0,2.5,.33,0,.67,0,1,0,.02,0,.02-2.5,0-2.5h0Z"/>
  <path class="cls-1" d="M32.17,863.98c116.46,36.58,238.44,10.63,355.88-6.48,59.47-8.66,119.14-14.87,179.3-11.94,63.07,3.07,124.51,16.01,187.09,22.76,21.88,2.36,47.75,2.56,67.11-9.5,7.66-4.77,12.51-11.19,16.7-18.98,5.31-9.87,11.23-19.97,14.79-30.64-4.56,8.9-9.12,17.8-13.68,26.7,29.63-2.07,59.27-4.14,88.9-6.21,15.22-1.06,30.43-2.13,45.65-3.19,7.21-.5,14.42-1.01,21.62-1.51,4.9-.34,19.25-2.98,21.87-.03,2.15,2.43,2.75,9.3,4.65,12.44,2.32,3.82,5.35,7.19,8.77,10.05,7.26,6.06,16.51,9.95,26,10.38,8.03,.37,14.96-.87,19.4-7.32,7.23-10.5,12.11-23.62,17.9-34.98-2.93,5.61-5.86,11.22-8.79,16.83,15.22-.67,30.33,.38,45.23,3.67,7.06,1.56,14,3.57,20.8,6.04,3.4,1.23,6.76,2.55,10.07,4.01,1.99,.86,3.95,1.78,5.9,2.74,1.86,1.64,3.43,1.16,4.71-1.47,5.34-2.7,9.86-7.23,15.36-9.94s11.3-4.79,17.25-6.19c13.31-3.13,26.75-2.74,39.94,.67,.35,.09,14.03-24.51,13.68-26.7-13.91-86.69-15.17-174.83-3.75-261.88-4.56,8.9-9.12,17.8-13.68,26.7,41.57-25.08,88.03-41.3,136.27-47.07,24.04-2.88,48.38-3.22,72.48-.87,4.29,.42,4.64-.13,6.34,3.07,1.39,2.63,.53,9.13,.7,12.06,.36,6.43,.71,12.87,1.05,19.3,.75,14.48,1.43,28.96,2.04,43.45,2.36,56.34,3.62,112.72,3.79,169.1,.08,27.39-.1,54.77-.53,82.16-.07,4.69-2.39,17.42-.4,21.74l-.05,2.42c2.35,.19,4.69,.38,7.04,.56,3.91,.31,7.82,.62,11.73,.93,14.1,1.12,28.2,2.22,42.3,3.27,108.51,8.07,218.12,13.2,326.34-1.14,102.86-13.63,204.86-55.65,309.77-37.03,105.21,18.67,196.53,82.34,302.7,97.64,3.41,.49,10.68-27.13,13.68-26.7-111.36-16.05-206.85-85.71-318.53-100.07-63.14-8.12-125.79,5.52-187.14,19.24-62.37,13.95-124.59,24.31-188.5,27.6-65.84,3.39-131.82,1.18-197.57-2.97-32.94-2.08-65.85-4.65-98.76-7.28-1.68-.13-8.61-.04-9.38-.75-1.17-1.08,.25-12.68,.29-14.5,.15-8.05,.27-16.11,.37-24.16,.21-16.91,.33-33.83,.34-50.75,.06-66.86-1.42-133.71-4.44-200.5-.73-16.09-1.55-32.18-2.45-48.27-.17-2.93,.69-9.44-.7-12.06l-.14-2.41c-2.75-.32-5.5-.61-8.26-.86-8.27-.75-16.56-1.19-24.86-1.32-28.36-.44-56.77,2.75-84.35,9.34-31.62,7.56-62.17,19.61-90.33,35.87-10,5.78-14.42,16.32-18.9,26.99-5.75,13.67-5.25,31.17-6.52,45.95-6.29,73.34-3.3,147.23,8.36,219.89,4.56-8.9,9.12-17.8,13.68-26.7-12.59-3.25-25.39-3.78-38.14-1.05-13.71,2.93-22.49,10.27-34.41,16.52-4.09,2.14-3.73,1.85-8.64-.38-3.29-1.5-6.62-2.89-10-4.17-6.76-2.55-13.69-4.66-20.72-6.31-15.57-3.64-31.39-4.85-47.34-4.14-1.78,.08-8.24,15.75-8.79,16.83-3.74,7.33-7.47,14.67-11.21,22,2.93-5.61,5.86-11.22,8.79-16.83-15.06,6.59-32.29,3.04-44.46-7.88-5.14-4.62-9.24-10.52-11.27-17.16-.59-1.92-1-3.87-1.24-5.86-3.2,.22-6.41,.45-9.61,.67-6.41,.45-12.81,.9-19.22,1.34-49.66,3.47-99.31,6.94-148.97,10.41-2.72,.19-12.6,23.48-13.68,26.7-.54,1.83-1.2,3.61-1.99,5.34l1.91-3.96c13.86-27.84,7.78-14.16,.31-8.22-2.81,2.24-5.91,4.1-9.13,5.68-8.76,4.28-18.53,6.32-28.18,7.31-22.36,2.29-44.41-1.78-66.44-5.14-57.56-8.76-115.36-17.39-173.67-18.73-112.7-2.6-222.41,27.35-334.24,35.77-61.31,4.62-123.1,1.86-182.09-16.67-1.81-.57-12.29,27.14-13.68,26.7h0Z"/>
  <path class="cls-1" d="M27.53,794.41c139.83,45.73,285.93-13.48,426.62-23.75,75.33-5.5,151.39-1.21,225.63,12.7,35.63,6.67,71.65,20.48,106.28,3.04,27.71-13.95,52.93-28.92,83.4-36.6,68.39-17.24,142.53-6.77,202.98,29.62,.18,.11,9.29-10.29,9.67-11.47,3.62-11.04,7.23-22.08,10.85-33.12-3.22,3.82-6.45,7.64-9.67,11.47,34.07,22.16,74.64,30.51,114.69,23.61,1.26-.22,9.77-10.34,9.67-11.47-7.35-80.81-5.5-162.09,5.54-242.48-3.22,3.82-6.45,7.64-9.67,11.47,48-22.38,97.62-41.12,148.53-55.78,24.71-7.11,49.69-13.28,74.88-18.48,11.85-2.45,23.75-4.68,35.68-6.7,6.71-1.13,13.43-2.2,20.17-3.19,2.99-.44,5.99-.87,8.98-1.29,7.05-.98,5.35-1.67,6.95,3.95s.57,13.57,.82,19.45c.31,7.29,.62,14.59,.92,21.88l1.85,43.76c1.2,28.36,2.39,56.72,3.59,85.08,2.33,55.1,4.65,110.2,6.98,165.3,.27,6.48,.55,12.96,.82,19.45,.17,4.05,.34,8.1,.51,12.15l.1,2.43c-1.45,4.11-.58,5.69,2.6,4.76,3.76,1.68,14.95-.63,19.13-.81,7.97-.34,15.95-.69,23.92-1.04,27.92-1.23,55.83-2.55,83.73-4.11,54.16-3.04,108.29-6.99,162.21-13.04,55.26-6.2,109.85-15.45,164.43-25.95,51.88-9.98,104.72-19.27,157.75-14.92,59.88,4.92,116.77,25.98,172.52,47.08,59.05,22.35,118.09,44.76,177.13,67.14,1.65,.62,8.22-12.02,9.67-11.47-61.92-23.47-123.79-47.06-185.75-70.4-58.73-22.12-119.1-43.18-182.49-44.81-62.67-1.61-124.05,13.57-185.28,24.71-64.33,11.7-129.36,19.19-194.52,24.42s-129.06,8.16-193.66,10.92c-3.99,.17-7.97,.34-11.96,.51l-4.78,.2c-3.93,1.76-5.56,1.02-4.89-2.23-2.63-4.74-.68-16.2-.92-21.88-.75-17.83-1.51-35.65-2.26-53.48-1.37-32.41-2.74-64.82-4.11-97.24-1.4-33.22-2.81-66.45-4.21-99.67-.65-15.4-1.3-30.79-1.95-46.19-.34-8.1-.68-16.21-1.03-24.31-.37-8.77,1.12-20.82-1.23-29.17s1.36-3.06-4.7-4.26c-3.53-.7-9.9,1.39-13.48,1.93-6.73,1.01-13.45,2.1-20.16,3.25-15.65,2.68-31.24,5.74-46.75,9.16-30.28,6.67-60.25,14.77-89.78,24.21-32.42,10.37-64.31,22.37-95.5,35.98-10.75,4.69-22.06,7.85-29.7,16.91-7.17,8.5-6.53,18.47-7.8,29.42-8.46,72.65-9.14,146.02-2.51,218.84,3.22-3.82,6.45-7.64,9.67-11.47-40.05,6.9-80.62-1.45-114.69-23.61-.11-.07-9.28,10.28-9.67,11.47-3.62,11.04-7.23,22.08-10.85,33.12,3.22-3.82,6.45-7.64,9.67-11.47-53.75-32.35-118.19-44.25-180.09-34.33-31.03,4.97-60.67,15.54-87.98,31.05-13.43,7.63-26.7,16.03-42.22,18.55-18.35,2.98-36.8-1.75-54.63-5.66-73.83-16.17-149.56-23.01-225.1-19.96-72.75,2.93-143.62,17.63-215.23,29.52-79.5,13.2-161.69,21.33-239.67-4.18-1.88-.61-7.99,12.02-9.67,11.47h0Z"/>
  <path class="cls-1" d="M31.45,746.76c97.11,41.19,202.94,18.55,302.01-2.43,51.75-10.96,103.76-22.17,156.65-25.74,56.35-3.81,109.5,6.03,164.43,17.4,57.56,11.91,112.99,18.41,169.33-2.38,28.65-10.58,55.87-20.57,86.7-22.36,28.83-1.67,57.66,1.54,86.27,4.73,32.14,3.58,64.28,7.2,96.42,10.8,14.46,1.62,28.93,3.24,43.39,4.86,1.87,.21,7.42,1.55,9.64,1.08l4.82,.54c.4-3.17,.79-6.34,1.18-9.52,.98-7.93,1.93-15.86,2.86-23.8,3.71-31.75,7.03-63.54,9.95-95.36,1.32-14.32,2.55-28.65,3.71-42.99,.64-7.96,1.26-15.93,1.85-23.9,.24-3.19,.47-6.38,.7-9.56s-.8-11.66,1-14.35c1.42-2.12,7.88-4.02,10.3-5.24,4.81-2.43,9.63-4.85,14.46-7.25,6.9-3.43,13.82-6.82,20.75-10.18,15.26-7.39,30.6-14.6,46.02-21.64,30.84-14.08,62-27.45,93.45-40.11,62.91-25.33,126.95-47.74,191.88-67.33l-1.71-14.9c-.63,102.85-1.26,205.7-1.89,308.55-.16,25.3-.39,50.61-.47,75.91-.03,9.2,.52,18.7,2.19,27.77,4.18,22.81,30.99,20.06,49.15,20.69,21.89,.76,43.82,.08,65.65-1.71,178.54-14.6,348.18-101.25,529.93-81.03,105.34,11.72,203.95,54.74,297.92,101.55-2.35-1.17,.82-13.65-1.71-14.9-118.16-58.85-243.54-109.87-378-104.16-126.36,5.37-246.34,50.06-369.84,72.72-34.81,6.39-70,11.07-105.38,12.48-16.97,.68-33.96,.62-50.92-.33-16.39-.92-34.79-.61-38.52-20.21,.54,4.63,1.08,9.25,1.63,13.88-3.19-31.9-.07-65.5,.12-97.56,.21-33.47,.41-66.93,.62-100.4,.41-66.12,.81-132.24,1.22-198.35,0-1.51-2.06-14.8-1.71-14.9-115.1,34.74-227.4,78.49-335.51,131.1-6.93,3.37-13.84,6.78-20.73,10.22-5.27,2.63-14.6,5.3-18.57,9.38-4.08,4.19-2.94,13.75-3.41,20.18-.7,9.56-1.43,19.12-2.2,28.68-2.44,30.27-5.24,60.5-8.39,90.7-1.58,15.1-3.24,30.19-5,45.27-.83,7.14-1.68,14.28-2.55,21.42-.24,1.99-.33,13.13-1.77,14.27-1.72,1.37-12.52-1.4-14.46-1.62-30.53-3.42-61.07-6.84-91.6-10.26-58.37-6.54-121.19-19.35-178.94-2.87-28.71,8.19-55.29,22.23-85.01,27-27.39,4.4-55.32,2.63-82.63-1.44-56.36-8.4-111.01-25.57-168.37-26.57-52.71-.92-105.02,8-156.5,18.43-111.61,22.63-231.86,57.6-342.14,10.82,2.18,.92-.65,13.9,1.71,14.9h0Z"/>
</svg>