<?xml version="1.0" encoding="UTF-8"?>
<svg id="Layer_1" data-name="Layer 1" xmlns="http://www.w3.org/2000/svg" width="1366" height="768" viewBox="0 0 1366 768">
  <defs>
    <style>
      .cls-1 {
        fill: #032ca6;
      }
    </style>
  </defs>
  <path class="cls-1" d="M458.76,45.83c-.25,86.96-3.07,173.91-8.48,260.71-5.38,86.31-13.32,172.47-23.79,258.32-5.89,48.31-12.6,96.52-20.09,144.6-.72,4.64,.47,10.31,.74,14.98,.07,1.25,.22,14.82,1.04,14.96,79.14,14.26,158.7-5.18,238.08-5.52,19.97-.08,39.84,1.24,59.6,4.1,20.17,2.92,40.14,7.03,60.23,10.46,40.53,6.9,81.58,9.29,122.61,6.06,14.05-1.1,33.35-2.22,39.04-17.86,3.07-8.43,2.55-18.39,2.86-27.23,.33-9.62,.43-19.25,.32-28.87-.47-43.02-3.83-86.17-8.63-128.91-4.49-39.97-10.31-79.77-14.93-119.73-1.12-9.73-2.18-19.46-3.12-29.21-.5-5.15-.97-10.3-1.39-15.45-.18-2.2-.35-4.4-.52-6.59-.08-1.1-.16-2.21-.24-3.31-.35-4.71,.22,3.43,.23,4.01-.24-19.86-1.13-39.57-.25-59.45,3.55-80.05,30.03-156.66,35.99-236.37,.72-9.59,1.08-19.2,1.13-28.81,.01-2.49-.99-29.36-1.8-29.41-63.51-4.01-127.05,1.34-190.18,8.08-63.16,6.74-126.31,14.88-189.89,16.23-35.81,.76-71.67-.75-107.16-5.76,.26,.04,.67,13.82,.74,14.98s.32,14.86,1.04,14.96c62.76,8.86,126.31,6.52,189.25,.87,63.43-5.7,126.56-14.63,190.15-18.7,35.9-2.3,71.91-2.99,107.83-.72-.6-9.8-1.2-19.61-1.8-29.41-.39,80.68-27.76,157.87-35.29,237.74-3.96,42.01-2.17,84.11,.59,126.14,2.63,40.15,7.48,80.06,12.67,119.95,2.57,19.79,5.18,39.58,7.5,59.4,1.18,10.05,2.29,20.11,3.28,30.18s1.23,19.41,2.48,28.98c-.13-1.02-.29-5.61-.16-2.33,.1,2.57,.22,5.13,.31,7.7,.17,5.03,.28,10.07,.35,15.11,.12,10.21,.02,20.43-.36,30.63-.32,8.64,.23,18.71-3.37,26.79-3.1,6.96-9.5,11-16.57,13.17-7.67,2.36-15.87,2.8-23.83,3.39-10.31,.77-20.64,1.2-30.98,1.3-20.35,.2-40.71-.9-60.92-3.28-40.35-4.76-79.82-15.49-120.46-18.01-79.38-4.93-158.13,15.52-237.49,8.58-9.64-.84-19.22-2.13-28.74-3.84,.6,9.98,1.19,19.96,1.79,29.95,13.36-85.78,24.21-171.94,32.47-258.36,8.29-86.74,14.01-173.74,17.12-260.82,1.73-48.49,2.65-97,2.8-145.52,.02-6.13-.61-12.31-.99-18.43-.19-2.98-.35-5.97-.6-8.94-.02-.27-.2-2.95-.21-1.5h0Z"/>
</svg>