<?xml version="1.0" encoding="UTF-8"?>
<svg id="Layer_2" data-name="Layer 2" xmlns="http://www.w3.org/2000/svg" width="1440" height="1955" xmlns:xlink="http://www.w3.org/1999/xlink" viewBox="0 0 1440 1955">
  <defs>
    <style>
      .cls-1 {
        fill: #ef8304;
      }
    </style>
  </defs>
  <image width="1830" height="2692" transform="scale(.79 .73)" xlink:href="../../../Downloads/lomo-smena.jpg"/>
  <path class="cls-1" d="M519.72,1098.79s.04-5,0-5-.04,5,0,5h0Z"/>
  <path class="cls-1" d="M530.45,802.62s.04-5,0-5-.04,5,0,5h0Z"/>
  <path class="cls-1" d="M-114.07,650L2.01,574.19c32.79-21.41,69.65-50.91,111.34-46.11,30.04,3.46,55.7,22.43,80.53,38.11,23.39,14.77,50.55,30.94,79.35,24.48,1.16-.26,3.15-.51,4.1-1.07,2.98-1.73,2.69-3.81,3.32-7.25,1.2-6.61,2.24-13.25,3.11-19.91,1.48-11.28,2.49-22.62,3.06-33.98,1.2-24.1,1.11-48.48-.15-72.57-.01,9.82-.03,19.64-.04,29.46,58.38-2.62,116.83-3.18,175.25-1.55,28.92,.81,57.82,2.14,86.68,4,15.18,.98,50.86-.88,54.2,20.51l-.13-7.43v1.92c.05-7.52,.1-15.05,.14-22.57-.8,5.78-4.36,10.54-4.76,16.4-.59,8.62-.12,17.46,0,26.1,.19,13.29,11.97,13.03,22.36,15.87,13.24,3.62,22.88,14.54,28.03,26.91,1.31,3.16,2.33,6.41,3.07,9.75,.44,2.01,.53,4.16,1.04,6.14,.47,4.33,.59,2.17,.37-6.5,.31-9.15,.3-10.85-.05-5.1-.92,9.91-2.53,19.62-4.41,29.39-.54,2.79-.72,29.88,0,30,32.19,5.14,64.38,10.3,96.57,15.43,14.79,2.36,29.77,4.97,44.16-.65,12.38-4.84,23.02-11.72,36.12-14.94,23.72-5.85,51.46-6.94,65.49-30.14,5.69-9.41,5.57-18.97,5.6-29.59s1.77-23.1-5.14-32.6v30c31,2.25,44.25-30.59,45.25-56.29,1.27-32.79-1.5-65.51-3.6-98.2-1.09-17-2.21-34.01-3.27-51.01-.25-3.97-.24-8.05-.64-12-.13-1.3-1.28,25.01,.23,14.19,.33-2.36,.42-4.75,.81-7.11,1.26-7.6,3.73-14.88,7.79-21.44,7.42-12,18.84-20.78,30.16-28.85,14.17-10.1,28.51-19.97,42.77-29.95,28.86-20.19,57.72-40.38,86.58-60.57,13.75-9.62,27.27-20.56,42.38-27.98,14.84-7.29,30.79-7.99,47.04-7.64,70.75,1.56,141.51,6,211.99,12.32,79.82,7.16,159.36,17.2,238.47,29.97-1.36-.22,1.8-29.71,0-30-140.01-22.61-281.39-36.53-423.14-41.46-16.24-.56-32.91-2.01-49.12-.33-16.62,1.73-30.34,9.18-43.89,18.52-29.33,20.23-58.4,40.84-87.59,61.27-14.19,9.93-28.39,19.86-42.58,29.79-12.8,8.96-26.29,17.43-38.05,27.77-10.96,9.63-19.26,21.19-22.27,35.67-3.02,14.54-1.97,30.13-1.84,44.86,.32,36.74,4.13,73.65,6.48,110.31,.31,4.87,.65,9.74,.9,14.61,.08,1.57,.1,3.14,.22,4.71,.34-14.2,.24-17.68-.32-10.44-.13,1.97-.36,3.94-.67,5.89-1.25,8.02-3.64,15.94-7.94,22.87-7.82,12.62-20.96,21.62-36.16,20.51,1.15,.08-1.7,27.67,0,30,3.09,4.24,4.61,8.38,5,13.61l-.13-22.57-.02,2.08,.13-7.43c-1.62,19.03-17.02,32.49-34.21,38.21-10.51,3.49-21.53,5.02-32.31,7.41s-21.3,6.54-31.56,11.76-20.24,8.14-31.89,7.57c-12.89-.63-25.76-3.44-38.48-5.47-26.44-4.22-52.88-8.45-79.33-12.67v30c3.05-15.82,4.84-31.18,4.89-47.29,.04-14.14,1.08-29.21-3.54-42.8-4.01-11.8-12.02-23.01-23.54-28.4-8.62-4.03-25.13-2.31-28.1-13.59l.11,4.39-.03-2.54-.11,25.61c1.31-5.71,4.44-10.44,4.76-16.4,.41-7.44,.1-14.99,.04-22.44-.08-11.3-3.49-17.85-14.35-22.37-12.89-5.37-28.03-4.81-41.71-5.68-17.32-1.1-34.65-2.02-51.99-2.74-69.37-2.89-138.85-2.71-208.2,.41-.45,.02-.17,26.92-.04,29.46,.15,2.79,.2,5.6,.39,8.39,.37,5.5,.44-4.2-.02,1.29-.5,5.95-.57,11.95-1.06,17.9-.87,10.6-2.15,21.17-3.84,31.67-.43,2.67-.84,13.17-2.67,14.88-1.62,1.51-6.04,1.73-8.21,2.14-6.29,1.19-12.73,1.33-19.08,.59-26.24-3.05-49.16-19.73-70.81-33.54s-47.2-29.82-74.86-30.56c-38.07-1.02-71.26,24.94-101.53,44.7-39.66,25.9-79.32,51.8-118.98,77.7-1.34,.88-.15,13.2-.15,15s1.46,14.15,.15,15h0Z"/>
</svg>